<svg width="24" height="24" viewBox="0 0 24 24" fill="#3E83FF" xmlns="http://www.w3.org/2000/svg">
<g id="mindsay-logo">
<path id="Vector" d="M12 0C2.39912 0 0 2.39912 0 12C0 21.6018 2.39912 24 12 24C21.6018 24 24 21.6009 24 12C24.0009 2.39912 21.6018 0 12 0Z" fill="#3E83FF"/>
<path id="Union" fill-rule="evenodd" clip-rule="evenodd" d="M10.9567 11.2987L15.525 11.2979C17.0866 11.2979 18.353 10.0333 18.353 8.47339C18.353 6.91348 17.0849 5.64893 15.525 5.64893L13.4221 5.64981C11.8604 5.64981 10.595 6.91348 10.595 8.47428V10.9379V10.9397C10.595 11.0388 10.6356 11.1281 10.7002 11.1935C10.7648 11.2581 10.855 11.2979 10.9531 11.2987H10.9567ZM7.42535 7.77209C6.45262 7.77209 5.66382 8.56001 5.66382 9.53363V9.53716C5.66382 10.5099 6.45262 11.2987 7.42535 11.2987C8.39808 11.2987 9.18688 10.5108 9.18688 9.53716V9.53363C9.18688 9.04638 8.99057 8.60599 8.67133 8.28764C8.3521 7.96929 7.91172 7.77209 7.42535 7.77209ZM13.4052 15.5266V13.0629V13.0612C13.4052 12.9621 13.3645 12.8728 13.3 12.8074C13.2354 12.7428 13.1461 12.7021 13.0471 12.7021H13.0444L8.47168 12.703C6.91177 12.703 5.64722 13.9676 5.64722 15.5275C5.64722 17.0874 6.91266 18.352 8.4708 18.352L10.5816 18.3511C12.1407 18.3511 13.4052 17.0874 13.4052 15.5266ZM18.3351 14.4663C18.3351 15.439 17.5463 16.2278 16.5735 16.2278C15.6008 16.2278 14.812 15.439 14.812 14.4663V14.4628C14.812 13.49 15.6008 12.7012 16.5735 12.7012C17.0599 12.7012 17.5003 12.8984 17.8195 13.2168C18.1388 13.536 18.3351 13.9764 18.3351 14.4628V14.4663Z" fill="white"/>
</g>
</svg>
